<?xml version="1.0" encoding="UTF-8" standalone="no"?>
<!DOCTYPE svg PUBLIC "-//W3C//DTD SVG 1.1//EN" "http://www.w3.org/Graphics/SVG/1.1/DTD/svg11.dtd">
<!-- Created with Vectornator (http://vectornator.io/) -->
<svg height="100%" stroke-miterlimit="10" style="fill-rule:nonzero;clip-rule:evenodd;stroke-linecap:round;stroke-linejoin:round;" version="1.1" viewBox="0 0 176 270" width="100%" xml:space="preserve" xmlns="http://www.w3.org/2000/svg" xmlns:vectornator="http://vectornator.io" xmlns:xlink="http://www.w3.org/1999/xlink">
<defs/>
<clipPath id="ArtboardFrame">
<rect height="270" width="176" x="0" y="0"/>
</clipPath>
<g clip-path="url(#ArtboardFrame)" id="Layer-2" vectornator:layerName="Layer 2">
<path d="M0-2.84217e-14L0 270L176 270L176-2.84217e-14L0-2.84217e-14ZM126.156 104.969C135.085 104.969 142.344 112.164 142.344 121.031C142.344 125.958 140.048 130.305 136.531 133.25C140.667 136.374 143.375 141.254 143.375 146.812C143.375 156.258 135.667 163.906 126.156 163.906C116.645 163.906 108.938 156.258 108.938 146.812C108.938 141.254 111.646 136.374 115.781 133.25C112.264 130.305 109.969 125.958 109.969 121.031C109.969 112.164 117.228 104.969 126.156 104.969ZM41.125 106.625C43.021 106.625 44.5813 106.751 45.7812 107.062C46.9813 107.375 47.958 108.026 48.75 108.938C49.614 109.874 50.294 111.219 50.75 113.031C51.206 114.843 51.4063 116.915 51.4062 119.219C51.4062 121.499 51.206 123.57 50.75 125.406C50.294 127.242 49.614 128.626 48.75 129.562C47.958 130.475 46.9547 131.075 45.7187 131.375C44.4827 131.675 42.9032 131.813 41.0312 131.812C40.0952 131.812 39.268 131.791 38.5 131.719C37.732 131.647 37.0302 131.512 36.4062 131.344C35.7823 131.176 35.242 130.944 34.75 130.656C34.258 130.368 33.8142 130.019 33.4062 129.562C32.9742 129.106 32.574 128.501 32.25 127.781C31.926 127.061 31.6535 126.263 31.4375 125.375C31.2215 124.487 31.0575 123.513 30.9375 122.469C30.8175 121.425 30.75 120.347 30.75 119.219C30.75 116.915 30.9815 114.843 31.4375 113.031C31.8935 111.219 32.5663 109.873 33.4062 108.938C34.2223 108.025 35.2015 107.375 36.4375 107.062C37.6735 106.75 39.253 106.625 41.125 106.625ZM62.625 106.625C63.681 106.625 64.665 106.673 65.625 106.781C66.585 106.889 67.3542 107.058 67.9062 107.25C67.9783 107.298 68.0073 107.32 68.0312 107.344C68.0553 107.368 68.0938 107.443 68.0938 107.562L67.8438 112.344C67.8438 112.392 67.8292 112.459 67.7812 112.531C67.7333 112.603 67.6585 112.611 67.5625 112.562C67.0345 112.442 66.422 112.353 65.75 112.281C65.078 112.209 64.4365 112.156 63.8125 112.156C62.9965 112.156 62.302 112.277 61.75 112.469C61.198 112.661 60.7615 113.023 60.4375 113.562C60.1135 114.103 59.882 114.814 59.75 115.75C59.618 116.686 59.5625 117.926 59.5625 119.437C59.5625 120.829 59.618 121.936 59.75 122.812C59.882 123.688 60.1135 124.402 60.4375 124.906C60.7615 125.41 61.198 125.777 61.75 125.969C62.302 126.161 62.9965 126.25 63.8125 126.25C64.5085 126.25 65.1982 126.209 65.9062 126.125C66.5693 126.046 67.0994 125.923 67.5625 125.812C67.3949 126.472 67.2157 127.217 67.0625 127.812C66.7482 129.033 66.3342 130.719 66.3438 130.688C66.295 130.85 66.2728 131.141 66.3125 131.469C66.1449 131.503 66.0186 131.563 65.8438 131.594C64.9678 131.75 63.897 131.813 62.625 131.812C60.753 131.812 59.159 131.571 57.875 131.031C56.591 130.491 55.5348 129.681 54.7187 128.625C53.9027 127.569 53.3287 126.267 52.9687 124.719C52.6087 123.171 52.4375 121.398 52.4375 119.406C52.4375 117.438 52.6087 115.666 52.9687 114.094C53.3288 112.522 53.9028 111.167 54.7187 110.062C55.5348 108.958 56.591 108.131 57.875 107.531C59.159 106.931 60.753 106.625 62.625 106.625ZM18.625 107L24.4062 107C24.6462 107 24.75 107.104 24.75 107.344L24.75 125.875C24.75 126.019 24.8247 126.094 24.9687 126.094L30.1875 126.094C30.4275 126.094 30.5313 126.198 30.5312 126.438L30.5312 131.094C30.5312 131.334 30.4275 131.469 30.1875 131.469L18.625 131.469C18.385 131.469 18.2813 131.334 18.2812 131.094L18.2812 107.344C18.2813 107.104 18.385 107 18.625 107ZM74.3125 107L83.5625 107C83.7785 107 83.928 107.104 84 107.344C84.24 108.232 84.5462 109.37 84.9062 110.75C85.2663 112.13 85.6233 113.615 86.0312 115.188C86.4393 116.76 86.8732 118.344 87.2812 120C87.6893 121.656 88.0655 123.224 88.4375 124.687C88.8095 126.152 89.1303 127.454 89.4062 128.594C89.6823 129.734 89.88 130.566 90 131.094C90.048 131.334 89.966 131.469 89.75 131.469L83.2812 131.469C83.0172 131.469 82.8605 131.334 82.8125 131.094L81.6875 126.062C81.6395 125.942 81.5985 125.887 81.5625 125.875C81.5265 125.863 81.4783 125.844 81.4062 125.844L75.8125 125.844C75.5965 125.844 75.4928 125.926 75.4688 126.094L74.3438 131.094C74.2478 131.334 74.1223 131.469 73.9062 131.469L67.9688 131.469C67.7287 131.469 67.6467 131.334 67.7188 131.094C67.8868 130.35 68.1255 129.368 68.4375 128.156C68.7495 126.944 69.0968 125.601 69.4688 124.125C69.8408 122.649 70.2483 121.127 70.6562 119.531C71.0643 117.935 71.4477 116.387 71.8438 114.875C72.2397 113.363 72.64 111.933 73 110.625C73.36 109.317 73.6663 108.232 73.9062 107.344C73.9783 107.104 74.0965 107 74.3125 107ZM91.5312 107L97.2812 107C97.5213 107 97.6563 107.104 97.6562 107.344L97.6562 125.875C97.6562 126.019 97.6997 126.094 97.8438 126.094L103.062 126.094C103.303 126.094 103.438 126.198 103.438 126.438L103.438 131.094C103.438 131.334 103.302 131.469 103.062 131.469L91.5312 131.469C91.2912 131.469 91.1875 131.334 91.1875 131.094L91.1875 107.344C91.1875 107.104 91.2912 107 91.5312 107ZM41.125 112.062C40.501 112.062 39.968 112.103 39.5 112.187C39.032 112.272 38.6848 112.476 38.4687 112.812C38.2047 113.269 38.007 114.105 37.875 115.281C37.743 116.457 37.6562 117.755 37.6562 119.219C37.6562 120.659 37.743 121.968 37.875 123.156C38.007 124.344 38.2048 125.169 38.4687 125.625C38.6848 125.961 39.0128 126.166 39.4687 126.25C39.9248 126.334 40.4698 126.375 41.0937 126.375C41.7418 126.375 42.294 126.334 42.75 126.25C43.206 126.166 43.5268 125.961 43.7187 125.625C43.9828 125.169 44.1805 124.344 44.3125 123.156C44.4445 121.968 44.5 120.659 44.5 119.219C44.5 117.755 44.4445 116.457 44.3125 115.281C44.1805 114.105 43.9827 113.268 43.7187 112.812C43.5267 112.476 43.206 112.272 42.75 112.187C42.294 112.103 41.749 112.063 41.125 112.062ZM78.7812 112.125C78.5652 112.125 78.4158 112.132 78.3438 112.156C78.2718 112.18 78.2427 112.233 78.2188 112.281C78.0747 112.785 77.8987 113.453 77.7187 114.281C77.5387 115.109 77.3483 115.941 77.1562 116.781C76.9642 117.621 76.8002 118.4 76.6562 119.156C76.5123 119.912 76.3845 120.484 76.3125 120.844C76.3125 120.964 76.3728 121.031 76.4687 121.031L80.9062 121.031C81.0022 121.031 81.0625 120.964 81.0625 120.844C80.9905 120.484 80.8507 119.912 80.7187 119.156C80.5867 118.4 80.4492 117.621 80.2812 116.781C80.1132 115.941 79.9493 115.109 79.7812 114.281C79.6132 113.453 79.495 112.785 79.375 112.281C79.351 112.233 79.2787 112.18 79.2187 112.156C79.1587 112.132 79.0212 112.125 78.7812 112.125ZM126.156 112.938C121.644 112.938 118 116.55 118 121.031C118 125.512 121.644 129.125 126.156 129.125C130.668 129.125 134.313 125.512 134.312 121.031C134.313 116.55 130.668 112.938 126.156 112.938ZM25.75 136.281C27.406 136.281 28.7228 136.438 29.7187 136.75C30.7148 137.062 31.5925 137.675 32.3125 138.562C33.0565 139.499 33.5895 140.864 33.9375 142.687C34.2855 144.512 34.4688 146.571 34.4688 148.875C34.4688 150.027 34.4085 151.132 34.3125 152.188C34.2165 153.244 34.0863 154.225 33.9062 155.125C33.7262 156.025 33.4947 156.842 33.2187 157.562C32.9428 158.282 32.6413 158.857 32.2812 159.312C31.9213 159.768 31.5137 160.161 31.0937 160.438C30.6737 160.714 30.2155 160.907 29.6875 161.062C29.1595 161.218 28.5662 161.346 27.9062 161.406C27.2462 161.466 26.5035 161.469 25.6875 161.469C24.8475 161.469 24.1047 161.466 23.4688 161.406C22.8327 161.346 22.2468 161.219 21.7188 161.062C21.1907 160.906 20.7205 160.713 20.3125 160.438C19.9045 160.161 19.5475 159.768 19.1875 159.312C18.8275 158.857 18.4755 158.282 18.1875 157.562C17.8995 156.842 17.68 156.025 17.5 155.125C17.32 154.225 17.1897 153.244 17.0937 152.188C16.9977 151.131 16.9375 150.027 16.9375 148.875C16.9375 146.571 17.128 144.512 17.5 142.687C17.872 140.863 18.4435 139.499 19.1875 138.562C19.9075 137.674 20.7612 137.062 21.7812 136.75C22.8013 136.438 24.118 136.281 25.75 136.281ZM153.719 136.5C154.655 136.5 155.588 136.536 156.5 136.656C157.412 136.776 158.114 136.926 158.594 137.094C158.714 137.118 158.75 137.214 158.75 137.406L158.625 139.031C158.625 139.079 158.611 139.127 158.562 139.188C158.514 139.248 158.44 139.267 158.344 139.219C158.104 139.147 157.778 139.072 157.406 139C157.034 138.928 156.67 138.86 156.25 138.812C155.83 138.764 155.382 138.743 154.938 138.719C154.494 138.695 154.071 138.656 153.688 138.656C152.127 138.656 151.054 138.953 150.406 139.469C149.758 139.985 149.406 140.86 149.406 142.156C149.406 142.492 149.428 142.854 149.5 143.25C149.572 143.646 149.721 144.039 149.938 144.375C150.226 144.807 150.775 145.314 151.531 145.938C152.287 146.562 153.208 147.27 154.312 148.062C156.305 149.455 157.669 150.73 158.438 151.906C158.774 152.458 158.998 153.023 159.094 153.562C159.19 154.102 159.25 154.628 159.25 155.156C159.25 156.284 159.062 157.251 158.75 158.031C158.438 158.811 157.994 159.445 157.406 159.938C156.818 160.429 156.14 160.772 155.312 161C154.484 161.228 153.532 161.344 152.5 161.344C151.492 161.344 150.474 161.276 149.406 161.156C148.338 161.036 147.357 160.903 146.469 160.688C146.349 160.663 146.281 160.536 146.281 160.344L146.438 158.656C146.438 158.488 146.496 158.421 146.688 158.469C147.671 158.661 148.612 158.798 149.5 158.906C150.388 159.014 151.367 159.063 152.375 159.062C153.671 159.062 154.689 158.809 155.469 158.281C156.249 157.753 156.656 156.784 156.656 155.344C156.656 154.912 156.642 154.509 156.594 154.125C156.546 153.741 156.396 153.36 156.156 153C155.868 152.592 155.364 152.088 154.656 151.5C153.948 150.912 153.041 150.23 151.938 149.437C150.929 148.741 150.011 148.04 149.219 147.344C148.427 146.648 147.86 146.006 147.5 145.406C147.164 144.854 146.959 144.309 146.875 143.781C146.791 143.253 146.75 142.761 146.75 142.281C146.75 141.153 146.926 140.213 147.25 139.469C147.574 138.725 148.013 138.132 148.625 137.688C149.237 137.243 149.992 136.93 150.844 136.75C151.696 136.57 152.639 136.5 153.719 136.5ZM36.7187 136.656L40.3125 136.656C40.5402 136.656 40.7214 136.775 40.8125 137.062L48.5937 157.531C48.7076 157.771 48.7669 157.889 48.8125 157.938C48.858 157.985 48.9714 158.031 49.0625 158.031C49.1991 158.031 49.25 157.942 49.25 157.75L49.25 137C49.25 136.76 49.366 136.656 49.5938 136.656L51.375 136.656C51.6027 136.656 51.7188 136.76 51.7188 137L51.7188 160.75C51.7188 160.99 51.6027 161.125 51.375 161.125L47.9062 161.125C47.7468 161.125 47.6507 161.084 47.5938 161C47.5368 160.916 47.4746 160.786 47.4062 160.594L39.5 139.875C39.4317 139.683 39.3382 139.541 39.2812 139.469C39.2243 139.397 39.1451 139.375 39.0312 139.375C38.9174 139.375 38.8665 139.409 38.8437 139.469C38.821 139.529 38.7813 139.652 38.7812 139.844L38.7812 160.75C38.7812 160.99 38.6965 161.125 38.4687 161.125L36.7187 161.125C36.491 161.125 36.375 160.99 36.375 160.75L36.375 137C36.375 136.76 36.491 136.656 36.7187 136.656ZM59.5625 136.656L72.375 136.656C72.6063 136.656 72.6875 136.76 72.6875 137L72.6875 138.5C72.6875 138.74 72.6063 138.875 72.375 138.875L67.4375 138.875C67.2987 138.875 67.2187 138.95 67.2188 139.094L67.2188 160.75C67.2188 160.99 67.1063 161.125 66.875 161.125L65.0312 161.125C64.8 161.125 64.6875 160.99 64.6875 160.75L64.6875 139.094C64.6875 138.95 64.6388 138.875 64.5 138.875L59.5625 138.875C59.3312 138.875 59.1875 138.74 59.1875 138.5L59.1875 137C59.1875 136.76 59.3312 136.656 59.5625 136.656ZM74.875 136.656L76.6875 136.656C76.9146 136.656 77.0312 136.76 77.0312 137L77.0312 147.188C77.0312 147.332 77.0825 147.406 77.2188 147.406L86.5312 147.406C86.6675 147.406 86.75 147.332 86.75 147.188L86.75 137C86.75 136.76 86.8667 136.656 87.0938 136.656L88.9062 136.656C89.1333 136.656 89.25 136.76 89.25 137L89.25 160.75C89.25 160.99 89.1333 161.125 88.9062 161.125L87.0938 161.125C86.8667 161.125 86.7501 160.99 86.75 160.75L86.75 149.719C86.75 149.575 86.6675 149.5 86.5312 149.5L77.2188 149.5C77.0825 149.5 77.0312 149.575 77.0312 149.719L77.0312 160.75C77.0312 160.99 76.9145 161.125 76.6875 161.125L74.875 161.125C74.6479 161.125 74.5313 160.99 74.5312 160.75L74.5312 137C74.5313 136.76 74.648 136.656 74.875 136.656ZM92.0625 136.656L102.594 136.656C102.825 136.656 102.906 136.76 102.906 137L102.906 138.5C102.906 138.74 102.825 138.875 102.594 138.875L94.4687 138.875C94.33 138.875 94.25 138.95 94.25 139.094L94.25 147.188C94.25 147.332 94.33 147.406 94.4687 147.406L102.125 147.406C102.356 147.406 102.469 147.51 102.469 147.75L102.469 149.125C102.469 149.365 102.356 149.5 102.125 149.5L94.4687 149.5C94.33 149.5 94.25 149.575 94.25 149.719L94.25 158.656C94.25 158.8 94.33 158.906 94.4687 158.906L103.219 158.906C103.45 158.906 103.563 159.01 103.562 159.25L103.562 160.75C103.562 160.99 103.45 161.125 103.219 161.125L92.0625 161.125C91.8312 161.125 91.7188 160.99 91.7187 160.75L91.7187 137C91.7188 136.76 91.8312 136.656 92.0625 136.656ZM126.156 138.094C121.303 138.094 117.375 141.993 117.375 146.812C117.375 151.632 121.303 155.531 126.156 155.531C131.009 155.531 134.938 151.632 134.938 146.812C134.938 141.993 131.009 138.094 126.156 138.094ZM25.75 138.5C25.078 138.5 24.4993 138.539 24.0312 138.562C23.5632 138.587 23.1797 138.635 22.8437 138.719C22.5078 138.803 22.228 138.907 22 139.062C21.772 139.219 21.5597 139.416 21.3437 139.656C21.0557 139.992 20.7977 140.482 20.5938 141.094C20.3897 141.706 20.2065 142.434 20.0625 143.25C19.9185 144.066 19.822 144.934 19.75 145.906C19.678 146.878 19.625 147.906 19.625 148.937C19.625 149.946 19.678 150.934 19.75 151.906C19.822 152.878 19.9185 153.747 20.0625 154.562C20.2065 155.379 20.3898 156.126 20.5938 156.75C20.7978 157.374 21.0557 157.813 21.3437 158.125C21.5598 158.365 21.772 158.594 22 158.75C22.228 158.906 22.5077 159.01 22.8437 159.094C23.1798 159.178 23.5752 159.226 24.0312 159.25C24.4873 159.274 25.0395 159.281 25.6875 159.281C27.0075 159.281 27.9698 159.207 28.5937 159.062C29.2177 158.919 29.7482 158.605 30.1562 158.125C30.4443 157.813 30.671 157.374 30.875 156.75C31.079 156.126 31.243 155.378 31.375 154.562C31.507 153.746 31.6155 152.878 31.6875 151.906C31.7595 150.934 31.7812 149.945 31.7812 148.937C31.7812 147.905 31.7595 146.878 31.6875 145.906C31.6155 144.934 31.507 144.066 31.375 143.25C31.243 142.434 31.079 141.706 30.875 141.094C30.671 140.482 30.4443 139.992 30.1562 139.656C29.9402 139.416 29.7087 139.218 29.4687 139.062C29.2288 138.907 28.9297 138.803 28.5937 138.719C28.2577 138.635 27.8622 138.587 27.4062 138.562C26.9503 138.539 26.398 138.5 25.75 138.5Z" fill="#ffffff" fill-rule="nonzero" opacity="0.75" stroke="none" vectornator:layerName="Curve 1"/>
</g>
</svg>
