<?xml version="1.0" encoding="UTF-8" standalone="no"?>
<!DOCTYPE svg PUBLIC "-//W3C//DTD SVG 1.1//EN" "http://www.w3.org/Graphics/SVG/1.1/DTD/svg11.dtd">
<!-- Created with Vectornator (http://vectornator.io/) -->
<svg height="100%" stroke-miterlimit="10" style="fill-rule:nonzero;clip-rule:evenodd;stroke-linecap:round;stroke-linejoin:round;" version="1.1" viewBox="0 0 220 100" width="100%" xml:space="preserve" xmlns="http://www.w3.org/2000/svg" xmlns:vectornator="http://vectornator.io" xmlns:xlink="http://www.w3.org/1999/xlink">
<defs/>
<g id="Layer-2" vectornator:layerName="Layer 2">
<path d="M0 0L220 0L220 100L0 100L0 0Z" fill="#000000" fill-rule="nonzero" opacity="0.5" stroke="none" vectornator:layerName="Rectangle 1"/>
<path d="M0 0L0 100L220 100L220 0L0 0ZM163 8.28125C175.401 8.28125 185.469 18.2776 185.469 30.5938C185.469 37.436 182.291 43.4718 177.406 47.5625C183.15 51.9013 186.906 58.6864 186.906 66.4062C186.906 79.5256 176.21 90.1562 163 90.1562C149.79 90.1562 139.094 79.5256 139.094 66.4062C139.094 58.6864 142.85 51.9013 148.594 47.5625C143.709 43.4718 140.531 37.436 140.531 30.5938C140.531 18.2776 150.599 8.28125 163 8.28125ZM44.9062 10.5938C47.5396 10.5938 49.6771 10.7854 51.3438 11.2188C53.0104 11.6521 54.4 12.5146 55.5 13.7812C56.7 15.0813 57.6167 16.9833 58.25 19.5C58.8833 22.0167 59.1875 24.8937 59.1875 28.0938C59.1875 31.2604 58.8833 34.1062 58.25 36.6562C57.6167 39.2063 56.7 41.1375 55.5 42.4375C54.4 43.7042 52.9979 44.5521 51.2812 44.9688C49.5646 45.3854 47.3812 45.5937 44.7812 45.5938C43.4812 45.5938 42.3167 45.5375 41.25 45.4375C40.1833 45.3375 39.2104 45.1708 38.3438 44.9375C37.4771 44.7042 36.7146 44.3688 36.0312 43.9688C35.3479 43.5687 34.7229 43.0709 34.1562 42.4375C33.5562 41.8042 33.0125 40.9687 32.5625 39.9688C32.1125 38.9687 31.7375 37.8583 31.4375 36.625C31.1375 35.3917 30.9167 34.0437 30.75 32.5938C30.5833 31.1437 30.5 29.6604 30.5 28.0938C30.5 24.8937 30.8042 22.0167 31.4375 19.5C32.0708 16.9833 32.9896 15.0813 34.1562 13.7812C35.2896 12.5146 36.6896 11.6521 38.4062 11.2188C40.1229 10.7854 42.3063 10.5938 44.9062 10.5938ZM74.75 10.5938C76.2167 10.5938 77.6042 10.6625 78.9375 10.8125C80.2708 10.9625 81.3271 11.1708 82.0938 11.4375C82.1938 11.5042 82.2479 11.5604 82.2812 11.5938C82.3146 11.6271 82.3437 11.7083 82.3438 11.875L82 18.5312C82 18.5979 81.9729 18.6813 81.9062 18.7812C81.8396 18.8812 81.7271 18.9104 81.5938 18.8438C80.8604 18.6771 80.0271 18.5375 79.0938 18.4375C78.1604 18.3375 77.2729 18.2813 76.4062 18.2812C75.2729 18.2812 74.2979 18.4208 73.5312 18.6875C72.7646 18.9542 72.1687 19.4688 71.7188 20.2188C71.2687 20.9688 70.9646 21.9812 70.7812 23.2812C70.5979 24.5813 70.5 26.275 70.5 28.375C70.5 30.3083 70.5979 31.8771 70.7812 33.0938C70.9646 34.3104 71.2688 35.2688 71.7188 35.9688C72.1688 36.6688 72.7646 37.1708 73.5312 37.4375C74.2979 37.7042 75.2729 37.8437 76.4062 37.8438C77.3729 37.8438 78.3292 37.7729 79.3125 37.6562C80.2334 37.547 80.9818 37.4031 81.625 37.25C81.3922 38.1665 81.119 39.1735 80.9062 40C80.4698 41.6955 79.9242 44.0443 79.9375 44C79.8698 44.2257 79.8198 44.6379 79.875 45.0938C79.6422 45.1416 79.4615 45.2068 79.2188 45.25C78.0021 45.4667 76.5167 45.5938 74.75 45.5938C72.15 45.5938 69.9396 45.2187 68.1562 44.4688C66.3729 43.7187 64.9146 42.5917 63.7812 41.125C62.6479 39.6583 61.8437 37.8687 61.3438 35.7188C60.8437 33.5688 60.5938 31.1104 60.5938 28.3438C60.5938 25.6104 60.8437 23.1521 61.3438 20.9688C61.8438 18.7854 62.6479 16.9083 63.7812 15.375C64.9146 13.8417 66.3729 12.6771 68.1562 11.8438C69.9396 11.0104 72.15 10.5938 74.75 10.5938ZM13.6562 11.0938L21.6562 11.0938C21.9896 11.0938 22.1563 11.2604 22.1562 11.5938L22.1562 37.3438C22.1562 37.5438 22.2375 37.625 22.4375 37.625L29.6875 37.625C30.0208 37.625 30.1875 37.7917 30.1875 38.125L30.1875 44.5938C30.1875 44.9271 30.0208 45.0937 29.6875 45.0938L13.6562 45.0938C13.3229 45.0938 13.1563 44.9271 13.1562 44.5938L13.1562 11.5938C13.1562 11.2604 13.3229 11.0938 13.6562 11.0938ZM91 11.0938L103.844 11.0938C104.144 11.0938 104.337 11.2604 104.438 11.5938C104.771 12.8271 105.187 14.3958 105.688 16.3125C106.188 18.2292 106.715 20.2854 107.281 22.4688C107.848 24.6521 108.433 26.8875 109 29.1875C109.567 31.4875 110.108 33.6542 110.625 35.6875C111.142 37.7208 111.585 39.5104 111.969 41.0938C112.352 42.6771 112.615 43.8604 112.781 44.5938C112.848 44.9271 112.737 45.0937 112.438 45.0938L103.438 45.0938C103.071 45.0938 102.848 44.9271 102.781 44.5938L101.25 37.5938C101.183 37.4271 101.113 37.3292 101.062 37.3125C101.012 37.2958 100.944 37.2813 100.844 37.2812L93.0938 37.2812C92.7937 37.2812 92.6271 37.3917 92.5938 37.625L91.0312 44.5938C90.8979 44.9271 90.7063 45.0937 90.4062 45.0938L82.1875 45.0938C81.8542 45.0938 81.7437 44.9271 81.8438 44.5938C82.0771 43.5604 82.4104 42.1833 82.8438 40.5C83.2771 38.8167 83.7646 36.9563 84.2812 34.9062C84.7979 32.8562 85.3396 30.7167 85.9062 28.5C86.4729 26.2833 87.0125 24.1312 87.5625 22.0312C88.1125 19.9312 88.6562 17.9729 89.1562 16.1562C89.6563 14.3396 90.0729 12.8271 90.4062 11.5938C90.5063 11.2604 90.7 11.0938 91 11.0938ZM114.906 11.0938L122.906 11.0938C123.24 11.0938 123.406 11.2604 123.406 11.5938L123.406 37.3438C123.406 37.5438 123.487 37.625 123.688 37.625L130.938 37.625C131.271 37.625 131.437 37.7917 131.438 38.125L131.438 44.5938C131.438 44.9271 131.271 45.0937 130.938 45.0938L114.906 45.0938C114.573 45.0938 114.406 44.9271 114.406 44.5938L114.406 11.5938C114.406 11.2604 114.573 11.0938 114.906 11.0938ZM44.9062 18.125C44.0396 18.125 43.275 18.1958 42.625 18.3125C41.975 18.4292 41.4875 18.7208 41.1875 19.1875C40.8208 19.8208 40.5583 20.9604 40.375 22.5938C40.1917 24.2271 40.0938 26.0604 40.0938 28.0938C40.0938 30.0938 40.1917 31.9125 40.375 33.5625C40.5583 35.2125 40.8208 36.3354 41.1875 36.9688C41.4875 37.4354 41.9604 37.7271 42.5938 37.8438C43.2271 37.9604 43.9771 38.0312 44.8438 38.0312C45.7438 38.0312 46.5229 37.9604 47.1562 37.8438C47.7896 37.7271 48.2333 37.4354 48.5 36.9688C48.8667 36.3354 49.1292 35.2125 49.3125 33.5625C49.4958 31.9125 49.5938 30.0937 49.5938 28.0938C49.5937 26.0604 49.4958 24.2271 49.3125 22.5938C49.1292 20.9604 48.8666 19.8208 48.5 19.1875C48.2333 18.7208 47.7896 18.4292 47.1562 18.3125C46.5229 18.1958 45.7729 18.125 44.9062 18.125ZM97.1875 18.2188C96.8875 18.2188 96.6938 18.2479 96.5938 18.2812C96.4938 18.3146 96.4396 18.3708 96.4062 18.4375C96.2062 19.1375 95.9687 20.0688 95.7188 21.2188C95.4687 22.3688 95.2042 23.5208 94.9375 24.6875C94.6708 25.8542 94.45 26.95 94.25 28C94.05 29.05 93.8812 29.8438 93.7812 30.3438C93.7812 30.5104 93.8667 30.5938 94 30.5938L100.156 30.5938C100.29 30.5938 100.344 30.5104 100.344 30.3438C100.244 29.8437 100.09 29.05 99.9062 28C99.7229 26.95 99.5145 25.8542 99.2812 24.6875C99.0479 23.5208 98.8271 22.3688 98.5938 21.2188C98.3604 20.0687 98.1667 19.1375 98 18.4375C97.9667 18.3708 97.8958 18.3146 97.8125 18.2812C97.7292 18.2479 97.5208 18.2188 97.1875 18.2188ZM163 19.3438C156.734 19.3438 151.656 24.3702 151.656 30.5938C151.656 36.8173 156.734 41.8438 163 41.8438C169.266 41.8437 174.344 36.8173 174.344 30.5938C174.344 24.3702 169.266 19.3438 163 19.3438ZM23.5312 51.7812C25.8313 51.7812 27.6792 52.0042 29.0625 52.4375C30.4458 52.8708 31.6563 53.7042 32.6562 54.9375C33.6896 56.2375 34.4229 58.1542 34.9062 60.6875C35.3896 63.2208 35.6563 66.0812 35.6562 69.2812C35.6562 70.8813 35.5708 72.4083 35.4375 73.875C35.3042 75.3417 35.125 76.7188 34.875 77.9688C34.625 79.2188 34.2896 80.3438 33.9062 81.3438C33.5229 82.3437 33.0938 83.1479 32.5938 83.7812C32.0937 84.4146 31.5521 84.9292 30.9688 85.3125C30.3854 85.6958 29.7333 86.0021 29 86.2188C28.2667 86.4354 27.4479 86.5729 26.5312 86.6562C25.6146 86.7396 24.5708 86.7812 23.4375 86.7812C22.2708 86.7812 21.2583 86.7396 20.375 86.6562C19.4917 86.5729 18.6708 86.4354 17.9375 86.2188C17.2042 86.0021 16.5667 85.6958 16 85.3125C15.4333 84.9292 14.9062 84.4146 14.4062 83.7812C13.9063 83.1479 13.4312 82.3437 13.0312 81.3438C12.6312 80.3437 12.3125 79.2188 12.0625 77.9688C11.8125 76.7187 11.6333 75.3417 11.5 73.875C11.3667 72.4083 11.2813 70.8813 11.2812 69.2812C11.2812 66.0812 11.5458 63.2208 12.0625 60.6875C12.5792 58.1542 13.3729 56.2375 14.4062 54.9375C15.4063 53.7042 16.6146 52.8708 18.0312 52.4375C19.4479 52.0042 21.2646 51.7812 23.5312 51.7812ZM201.281 52.0625C202.581 52.0625 203.89 52.1458 205.156 52.3125C206.423 52.4792 207.364 52.6729 208.031 52.9062C208.198 52.9396 208.281 53.0771 208.281 53.3438L208.094 55.5938C208.094 55.6604 208.067 55.7291 208 55.8125C207.933 55.8958 207.821 55.9104 207.688 55.8438C207.354 55.7437 206.923 55.6625 206.406 55.5625C205.89 55.4625 205.365 55.3791 204.781 55.3125C204.198 55.2458 203.585 55.1896 202.969 55.1562C202.352 55.1229 201.783 55.0938 201.25 55.0938C199.083 55.0938 197.556 55.4708 196.656 56.1875C195.756 56.9042 195.281 58.1375 195.281 59.9375C195.281 60.4042 195.338 60.9188 195.438 61.4688C195.538 62.0188 195.731 62.5333 196.031 63C196.431 63.6 197.169 64.3209 198.219 65.1875C199.269 66.0542 200.56 67.0562 202.094 68.1562C204.86 70.0896 206.777 71.8667 207.844 73.5C208.31 74.2667 208.617 75.0313 208.75 75.7812C208.883 76.5312 208.937 77.2667 208.938 78C208.938 79.5667 208.715 80.8854 208.281 81.9688C207.848 83.0521 207.223 83.9417 206.406 84.625C205.59 85.3083 204.619 85.8084 203.469 86.125C202.319 86.4417 201.027 86.5937 199.594 86.5938C198.194 86.5938 196.764 86.5104 195.281 86.3438C193.798 86.1771 192.421 85.9562 191.188 85.6562C191.021 85.6229 190.938 85.4541 190.938 85.1875L191.156 82.8438C191.156 82.6104 191.265 82.5271 191.531 82.5938C192.898 82.8604 194.204 83.0688 195.438 83.2188C196.671 83.3688 198.006 83.4375 199.406 83.4375C201.206 83.4375 202.635 83.0771 203.719 82.3438C204.802 81.6104 205.344 80.25 205.344 78.25C205.344 77.65 205.317 77.0958 205.25 76.5625C205.183 76.0292 204.989 75.5 204.656 75C204.256 74.4333 203.546 73.7542 202.562 72.9375C201.579 72.1208 200.315 71.1625 198.781 70.0625C197.381 69.0958 196.131 68.1229 195.031 67.1562C193.931 66.1896 193.156 65.2708 192.656 64.4375C192.19 63.6708 191.898 62.9208 191.781 62.1875C191.665 61.4542 191.594 60.7604 191.594 60.0938C191.594 58.5271 191.831 57.2208 192.281 56.1875C192.731 55.1542 193.369 54.3354 194.219 53.7188C195.069 53.1021 196.098 52.6875 197.281 52.4375C198.465 52.1875 199.781 52.0625 201.281 52.0625ZM38.7812 52.2812L43.7812 52.2812C44.0975 52.2812 44.3422 52.475 44.4688 52.875L55.2812 81.2812C55.4394 81.6146 55.5305 81.8083 55.5938 81.875C55.657 81.9417 55.7797 81.9687 55.9062 81.9688C56.096 81.9688 56.1875 81.8604 56.1875 81.5938L56.1875 52.7812C56.1875 52.4479 56.34 52.2812 56.6562 52.2812L59.125 52.2812C59.4413 52.2812 59.5938 52.4479 59.5938 52.7812L59.5938 85.7812C59.5938 86.1146 59.4413 86.2812 59.125 86.2812L54.3125 86.2812C54.0911 86.2812 53.9541 86.2104 53.875 86.0938C53.7959 85.9771 53.7199 85.7979 53.625 85.5312L42.625 56.7812C42.5301 56.5146 42.4228 56.3187 42.3438 56.2188C42.2647 56.1187 42.1581 56.0937 42 56.0938C41.8419 56.0938 41.7504 56.1354 41.7188 56.2188C41.6871 56.3021 41.6562 56.4521 41.6562 56.7188L41.6562 85.7812C41.6562 86.1146 41.5038 86.2812 41.1875 86.2812L38.7812 86.2812C38.465 86.2812 38.2813 86.1146 38.2812 85.7812L38.2812 52.7812C38.2812 52.4479 38.465 52.2812 38.7812 52.2812ZM70.5 52.2812L88.2812 52.2812C88.6025 52.2812 88.75 52.4479 88.75 52.7812L88.75 54.875C88.75 55.2083 88.6025 55.375 88.2812 55.375L81.4375 55.375C81.2448 55.375 81.1563 55.4875 81.1562 55.6875L81.1562 85.7812C81.1562 86.1146 80.9775 86.2812 80.6562 86.2812L78.0938 86.2812C77.7725 86.2812 77.625 86.1146 77.625 85.7812L77.625 55.6875C77.625 55.4875 77.5365 55.375 77.3438 55.375L70.5 55.375C70.1788 55.375 70 55.2083 70 54.875L70 52.7812C70 52.4479 70.1788 52.2812 70.5 52.2812ZM91.75 52.2812L94.2812 52.2812C94.5966 52.2812 94.7499 52.4479 94.75 52.7812L94.75 66.9375C94.75 67.1375 94.842 67.2188 95.0312 67.2188L107.969 67.2188C108.158 67.2188 108.281 67.1375 108.281 66.9375L108.281 52.7812C108.281 52.4479 108.435 52.2812 108.75 52.2812L111.25 52.2812C111.565 52.2812 111.719 52.4479 111.719 52.7812L111.719 85.7812C111.719 86.1146 111.565 86.2812 111.25 86.2812L108.75 86.2812C108.435 86.2812 108.281 86.1146 108.281 85.7812L108.281 70.4375C108.281 70.2375 108.158 70.125 107.969 70.125L95.0312 70.125C94.842 70.125 94.75 70.2375 94.75 70.4375L94.75 85.7812C94.75 86.1146 94.5966 86.2812 94.2812 86.2812L91.75 86.2812C91.4346 86.2812 91.2813 86.1146 91.2812 85.7812L91.2812 52.7812C91.2812 52.4479 91.4347 52.2812 91.75 52.2812ZM115.656 52.2812L130.25 52.2812C130.571 52.2812 130.719 52.4479 130.719 52.7812L130.719 54.875C130.719 55.2083 130.571 55.375 130.25 55.375L118.969 55.375C118.776 55.375 118.687 55.4875 118.688 55.6875L118.688 66.9375C118.688 67.1375 118.776 67.2188 118.969 67.2188L129.625 67.2188C129.946 67.2188 130.094 67.3854 130.094 67.7188L130.094 69.625C130.094 69.9583 129.946 70.125 129.625 70.125L118.969 70.125C118.776 70.125 118.687 70.2375 118.688 70.4375L118.688 82.875C118.688 83.075 118.776 83.1875 118.969 83.1875L131.125 83.1875C131.446 83.1875 131.594 83.3542 131.594 83.6875L131.594 85.7812C131.594 86.1146 131.446 86.2812 131.125 86.2812L115.656 86.2812C115.335 86.2812 115.156 86.1146 115.156 85.7812L115.156 52.7812C115.156 52.4479 115.335 52.2812 115.656 52.2812ZM163 54.2812C156.259 54.2812 150.812 59.7118 150.812 66.4062C150.813 73.1007 156.26 78.5 163 78.5C169.741 78.5 175.188 73.1007 175.188 66.4062C175.188 59.7118 169.74 54.2812 163 54.2812ZM23.5312 54.875C22.5979 54.875 21.8063 54.9042 21.1562 54.9375C20.5062 54.9708 19.9667 55.0396 19.5 55.1562C19.0333 55.2729 18.6292 55.4396 18.3125 55.6562C17.9958 55.8729 17.7062 56.1354 17.4062 56.4688C17.0062 56.9354 16.6583 57.6188 16.375 58.4688C16.0917 59.3188 15.8562 60.3042 15.6562 61.4375C15.4562 62.5708 15.2875 63.8063 15.1875 65.1562C15.0875 66.5063 15.0313 67.9104 15.0312 69.3438C15.0312 70.7437 15.0875 72.1187 15.1875 73.4688C15.2875 74.8188 15.4562 76.0542 15.6562 77.1875C15.8563 78.3208 16.0917 79.3208 16.375 80.1875C16.6583 81.0542 17.0062 81.6917 17.4062 82.125C17.7063 82.4583 17.9958 82.7521 18.3125 82.9688C18.6292 83.1854 19.0333 83.3521 19.5 83.4688C19.9667 83.5854 20.5229 83.6542 21.1562 83.6875C21.7896 83.7208 22.5375 83.7188 23.4375 83.7188C25.2708 83.7188 26.6333 83.6375 27.5 83.4375C28.3667 83.2375 29.0896 82.7917 29.6562 82.125C30.0563 81.6917 30.3729 81.0542 30.6562 80.1875C30.9396 79.3208 31.1917 78.3208 31.375 77.1875C31.5583 76.0542 31.6812 74.8188 31.7812 73.4688C31.8813 72.1187 31.9375 70.7437 31.9375 69.3438C31.9375 67.9104 31.8812 66.5062 31.7812 65.1562C31.6812 63.8062 31.5583 62.5708 31.375 61.4375C31.1917 60.3042 30.9396 59.3187 30.6562 58.4688C30.3729 57.6187 30.0563 56.9354 29.6562 56.4688C29.3562 56.1354 29.0208 55.8729 28.6875 55.6562C28.3542 55.4396 27.9667 55.2729 27.5 55.1562C27.0333 55.0396 26.4771 54.9708 25.8438 54.9375C25.2104 54.9042 24.4313 54.875 23.5312 54.875Z" fill="#ffffff" fill-rule="nonzero" opacity="1" stroke="none" vectornator:layerName="Curve 1"/>
</g>
</svg>
