<?xml version="1.0" encoding="UTF-8" standalone="no"?>
<svg
   viewBox="0 0 165.62 254.21"
   version="1.1"
   id="svg22"
   sodipodi:docname="local-white-box.svg"
   inkscape:version="1.1.2 (0a00cf5339, 2022-02-04)"
   xmlns:inkscape="http://www.inkscape.org/namespaces/inkscape"
   xmlns:sodipodi="http://sodipodi.sourceforge.net/DTD/sodipodi-0.dtd"
   xmlns="http://www.w3.org/2000/svg"
   xmlns:svg="http://www.w3.org/2000/svg">
  <sodipodi:namedview
     id="namedview24"
     pagecolor="#ffffff"
     bordercolor="#666666"
     borderopacity="1.0"
     inkscape:pageshadow="2"
     inkscape:pageopacity="0.0"
     inkscape:pagecheckerboard="0"
     showgrid="false"
     inkscape:zoom="1.8449313"
     inkscape:cx="110.30221"
     inkscape:cy="60.435854"
     inkscape:window-width="1360"
     inkscape:window-height="675"
     inkscape:window-x="0"
     inkscape:window-y="27"
     inkscape:window-maximized="1"
     inkscape:current-layer="svg22" />
  <defs
     id="defs4">
    <style
       id="style2">.cls-1{fill:#fff;opacity:0.75;}</style>
    <filter
       id="mask-powermask-path-effect2019_inverse"
       inkscape:label="filtermask-powermask-path-effect2019"
       style="color-interpolation-filters:sRGB"
       height="100"
       width="100"
       x="-50"
       y="-50">
      <feColorMatrix
         id="mask-powermask-path-effect2019_primitive1"
         values="1"
         type="saturate"
         result="fbSourceGraphic" />
      <feColorMatrix
         id="mask-powermask-path-effect2019_primitive2"
         values="-1 0 0 0 1 0 -1 0 0 1 0 0 -1 0 1 0 0 0 1 0 "
         in="fbSourceGraphic" />
    </filter>
    <filter
       id="mask-powermask-path-effect2144_inverse"
       inkscape:label="filtermask-powermask-path-effect2144"
       style="color-interpolation-filters:sRGB"
       height="100"
       width="100"
       x="-50"
       y="-50">
      <feColorMatrix
         id="mask-powermask-path-effect2144_primitive1"
         values="1"
         type="saturate"
         result="fbSourceGraphic" />
      <feColorMatrix
         id="mask-powermask-path-effect2144_primitive2"
         values="-1 0 0 0 1 0 -1 0 0 1 0 0 -1 0 1 0 0 0 1 0 "
         in="fbSourceGraphic" />
    </filter>
  </defs>
  <title
     id="title6">local-white-box-logo_1</title>
  <path
     style="fill:#3584e4;fill-rule:evenodd;opacity:0.56"
     id="rect88"
     width="165.8714"
     height="254.66226"
     x="0.31760967"
     y="0.041105151"
     sodipodi:type="rect" />
  <g
     aria-label="SCAN"
     id="text1734"
     style="font-weight:bold;font-size:52.9134px;font-family:'Lexend Deca';-inkscape-font-specification:'Lexend Deca Bold';letter-spacing:0px;word-spacing:0px;fill:#ffffff">
    <path
       d="m 30.508768,128.40069 q -3.651025,0 -6.614175,-0.84662 -2.910237,-0.89953 -5.185513,-2.53984 -2.275277,-1.69323 -4.074332,-3.96851 l 5.45008,-6.19086 q 2.64567,3.54519 5.29134,4.7622 2.698583,1.21701 5.555907,1.21701 1.428661,0 2.592756,-0.37039 1.164095,-0.3704 1.799056,-1.05827 0.634961,-0.74079 0.634961,-1.79906 0,-0.7937 -0.423308,-1.42866 -0.370393,-0.63496 -1.058268,-1.11118 -0.687874,-0.47622 -1.640315,-0.84662 -0.952441,-0.4233 -2.010709,-0.68787 -1.058268,-0.31748 -2.169449,-0.52913 -3.068978,-0.68788 -5.344254,-1.69323 -2.275276,-1.00536 -3.809764,-2.43402 -1.481576,-1.48157 -2.222363,-3.33354 -0.740788,-1.90489 -0.740788,-4.23307 0,-2.486934 1.111182,-4.550557 1.164094,-2.116536 3.068977,-3.598111 1.957795,-1.534489 4.497639,-2.32819 2.539843,-0.846614 5.29134,-0.846614 3.651024,0 6.243781,0.793701 2.645669,0.740788 4.497638,2.169449 1.904883,1.428662 3.227718,3.439371 l -5.555907,5.344251 q -1.111181,-1.37575 -2.434016,-2.275274 -1.269922,-0.899527 -2.751497,-1.375748 -1.428662,-0.476221 -2.96315,-0.476221 -1.587402,0 -2.751497,0.423308 -1.111182,0.370393 -1.746142,1.111181 -0.634961,0.687874 -0.634961,1.693224 0,0.89953 0.529134,1.53449 0.529134,0.63496 1.428662,1.1641 0.899527,0.47622 2.063622,0.84661 1.164095,0.31748 2.434016,0.52914 2.910237,0.58204 5.238427,1.53449 2.381103,0.95244 4.074332,2.32818 1.746142,1.37575 2.64567,3.28064 0.952441,1.85196 0.952441,4.33889 0,3.86268 -1.904883,6.56127 -1.851969,2.64567 -5.132599,4.07433 -3.227718,1.37575 -7.460789,1.37575 z"
       id="path1990" />
    <path
       d="m 68.606355,128.40069 q -4.180158,0 -7.725356,-1.37575 -3.492285,-1.42866 -6.085041,-3.96851 -2.592757,-2.59275 -4.021418,-6.08504 -1.375749,-3.5452 -1.375749,-7.77827 0,-4.12724 1.481575,-7.61953 1.481576,-3.492282 4.074332,-6.032125 2.64567,-2.592757 6.190868,-4.021418 3.598111,-1.428662 7.831183,-1.428662 2.64567,0 5.185513,0.687874 2.539843,0.687874 4.709292,2.063623 2.222363,1.322835 3.809765,3.174803 l -5.502993,6.296695 q -1.111182,-1.16409 -2.381103,-2.01071 -1.217008,-0.899527 -2.698584,-1.375748 -1.481575,-0.47622 -3.174804,-0.47622 -2.116536,0 -4.021418,0.793701 -1.851969,0.740787 -3.280631,2.169447 -1.375748,1.37575 -2.169449,3.38646 -0.793701,2.01071 -0.793701,4.49764 0,2.43401 0.793701,4.44472 0.793701,1.9578 2.222363,3.38646 1.428662,1.42866 3.439371,2.16945 2.063622,0.74079 4.550552,0.74079 1.693229,0 3.227717,-0.47622 1.534489,-0.47622 2.80441,-1.26992 1.322835,-0.84662 2.32819,-1.90489 l 4.338899,6.87875 q -1.322835,1.48157 -3.545198,2.64567 -2.169449,1.16409 -4.868033,1.85196 -2.64567,0.63497 -5.344253,0.63497 z"
       id="path1992" />
    <path
       d="M 83.792411,127.87155 98.449423,90.832172 h 7.619527 l 14.55119,37.039378 h -9.10111 l -6.98457,-18.78426 q -0.4233,-1.11118 -0.84661,-2.3811 -0.42331,-1.26992 -0.84662,-2.59275 -0.4233,-1.37575 -0.84661,-2.64567 -0.37039,-1.32284 -0.63496,-2.434021 l 1.5874,-0.05291 q -0.31748,1.322834 -0.74079,2.592754 -0.37039,1.26992 -0.7937,2.53985 -0.37039,1.217 -0.84661,2.48693 -0.47622,1.217 -0.899529,2.53984 l -6.984569,18.73134 z m 6.984569,-7.09039 2.80441,-6.77292 h 17.03811 l 2.7515,6.77292 z"
       id="path1994" />
    <path
       d="M 125.22351,127.87155 V 90.832172 h 8.04284 l 19.41922,26.456698 -1.74615,-0.26457 q -0.26456,-1.74614 -0.4233,-3.33354 -0.15874,-1.5874 -0.31748,-3.12189 -0.10583,-1.53449 -0.21166,-3.12189 -0.0529,-1.5874 -0.10582,-3.43937 0,-1.85197 0,-4.02142 v -9.154018 h 8.73071 v 37.039378 h -8.14867 l -20.26583,-27.30331 2.69859,0.37039 q 0.26456,2.53984 0.4233,4.3389 0.21166,1.74614 0.31748,3.12189 0.15874,1.37575 0.21166,2.48693 0.0529,1.11118 0.0529,2.22236 0.0529,1.05827 0.0529,2.38111 v 12.38173 z"
       id="path1996" />
  </g>
</svg>
