<?xml version="1.0" encoding="UTF-8" standalone="no"?>
<svg
   viewBox="0 0 166.11 71.89"
   version="1.1"
   id="svg22"
   sodipodi:docname="local.svg"
   inkscape:version="1.1.2 (0a00cf5339, 2022-02-04)"
   xmlns:inkscape="http://www.inkscape.org/namespaces/inkscape"
   xmlns:sodipodi="http://sodipodi.sourceforge.net/DTD/sodipodi-0.dtd"
   xmlns="http://www.w3.org/2000/svg"
   xmlns:svg="http://www.w3.org/2000/svg">
  <sodipodi:namedview
     id="namedview24"
     pagecolor="#ffffff"
     bordercolor="#666666"
     borderopacity="1.0"
     inkscape:pageshadow="2"
     inkscape:pageopacity="0.0"
     inkscape:pagecheckerboard="0"
     showgrid="false"
     inkscape:zoom="2.3065314"
     inkscape:cx="151.95978"
     inkscape:cy="42.704817"
     inkscape:window-width="1360"
     inkscape:window-height="675"
     inkscape:window-x="0"
     inkscape:window-y="27"
     inkscape:window-maximized="1"
     inkscape:current-layer="svg22" />
  <defs
     id="defs4">
    <inkscape:path-effect
       effect="powerclip"
       id="path-effect2272"
       is_visible="true"
       lpeversion="1"
       inverse="true"
       flatten="false"
       hide_clip="false"
       message="Use fill-rule evenodd on &lt;b&gt;fill and stroke&lt;/b&gt; dialog if no flatten result after convert clip to paths." />
    <style
       id="style2">.cls-1{fill:#fff;}</style>
    <clipPath
       clipPathUnits="userSpaceOnUse"
       id="clipPath2266">
      <g
         aria-label="SCAN"
         id="g2270"
         style="font-weight:bold;font-size:52.9134px;line-height:1.25;font-family:'Lexend Deca';-inkscape-font-specification:'Lexend Deca Bold';letter-spacing:0px;word-spacing:0px;display:none">
        <path
           id="path2268"
           d="M 124.41083,50.689503 V 13.650124 h 8.04284 l 19.41921,26.456699 -1.74614,-0.264567 q -0.26457,-1.746142 -0.42331,-3.333544 -0.15874,-1.587402 -0.31748,-3.121891 -0.10582,-1.534488 -0.21165,-3.12189 -0.0529,-1.587402 -0.10583,-3.439371 0,-1.851969 0,-4.021418 v -9.154018 h 8.73071 v 37.039379 h -8.14866 l -20.26583,-27.303314 2.69858,0.370394 q 0.26457,2.539843 0.42331,4.338898 0.21165,1.746143 0.31748,3.121891 0.15874,1.375748 0.21165,2.48693 0.0529,1.111181 0.0529,2.222362 0.0529,1.058268 0.0529,2.381103 v 12.381736 z m -41.431102,0 14.657011,-37.039379 h 7.619531 l 14.55118,37.039379 h -9.1011 l -6.98457,-18.784257 q -0.42331,-1.111181 -0.84661,-2.381103 -0.42331,-1.269921 -0.84662,-2.592756 -0.42331,-1.375749 -0.84661,-2.64567 -0.3704,-1.322835 -0.63496,-2.434017 l 1.5874,-0.05291 q -0.31748,1.322835 -0.74079,2.592757 -0.37039,1.269921 -0.7937,2.539843 -0.37039,1.217008 -0.846615,2.486929 -0.47622,1.217009 -0.899527,2.539844 l -6.984569,18.731343 z m 6.984569,-7.090396 2.80441,-6.772915 h 17.038113 l 2.7515,6.772915 z m -22.170625,7.61953 q -4.180159,0 -7.725356,-1.375749 -3.492285,-1.428661 -6.085041,-3.968505 -2.592757,-2.592756 -4.021418,-6.08504 -1.375749,-3.545198 -1.375749,-7.77827 0,-4.127245 1.481575,-7.619529 1.481575,-3.492285 4.074332,-6.032128 2.64567,-2.592756 6.190868,-4.021418 3.598111,-1.428662 7.831183,-1.428662 2.64567,0 5.185513,0.687874 2.539843,0.687874 4.709292,2.063623 2.222363,1.322835 3.809765,3.174804 l -5.502993,6.296694 q -1.111182,-1.164095 -2.381103,-2.010709 -1.217009,-0.899528 -2.698584,-1.375748 -1.481575,-0.476221 -3.174804,-0.476221 -2.116536,0 -4.021418,0.793701 -1.851969,0.740788 -3.280631,2.169449 -1.375748,1.375749 -2.169449,3.386458 -0.793701,2.010709 -0.793701,4.497639 0,2.434016 0.793701,4.444725 0.793701,1.957796 2.222363,3.386458 1.428661,1.428662 3.439371,2.169449 2.063622,0.740788 4.550552,0.740788 1.693229,0 3.227717,-0.476221 1.534489,-0.47622 2.80441,-1.269921 1.322835,-0.846615 2.32819,-1.904883 l 4.338899,6.878742 q -1.322835,1.481575 -3.545198,2.64567 -2.169449,1.164095 -4.868033,1.851969 -2.64567,0.634961 -5.344253,0.634961 z m -38.097588,0 q -3.651024,0 -6.614174,-0.846615 -2.910237,-0.899527 -5.185514,-2.539843 -2.275276,-1.693229 -4.074331,-3.968505 l 5.45008,-6.190867 q 2.64567,3.545197 5.29134,4.762206 2.698583,1.217008 5.555907,1.217008 1.428661,0 2.592756,-0.370394 1.164095,-0.370394 1.799056,-1.058268 0.63496,-0.740788 0.63496,-1.799056 0,-0.793701 -0.423307,-1.428661 -0.370394,-0.634961 -1.058268,-1.111182 -0.687874,-0.47622 -1.640315,-0.846614 -0.952441,-0.423307 -2.010709,-0.687874 -1.058268,-0.317481 -2.16945,-0.529134 -3.068977,-0.687875 -5.344253,-1.693229 -2.275276,-1.005355 -3.809765,-2.434016 -1.481575,-1.481576 -2.222362,-3.333545 -0.740788,-1.904882 -0.740788,-4.233071 0,-2.48693 1.111182,-4.550553 1.164094,-2.116536 3.068977,-3.598111 1.957795,-1.534488 4.497639,-2.328189 2.539843,-0.846615 5.291339,-0.846615 3.651025,0 6.243781,0.793701 2.64567,0.740788 4.497639,2.16945 1.904883,1.428661 3.227718,3.43937 l -5.555907,5.344254 q -1.111182,-1.375749 -2.434017,-2.275276 -1.269921,-0.899528 -2.751496,-1.375749 -1.428662,-0.47622 -2.963151,-0.47622 -1.587402,0 -2.751496,0.423307 -1.111182,0.370394 -1.746142,1.111181 -0.634961,0.687874 -0.634961,1.693229 0,0.899528 0.529134,1.534489 0.529134,0.63496 1.428661,1.164094 0.899528,0.476221 2.063623,0.846615 1.164095,0.31748 2.434016,0.529134 2.910237,0.582047 5.238427,1.534488 2.381103,0.952441 4.074332,2.32819 1.746142,1.375748 2.645669,3.28063 0.952442,1.851969 0.952442,4.338899 0,3.862678 -1.904883,6.561262 -1.851969,2.64567 -5.132599,4.074331 -3.227718,1.375749 -7.46079,1.375749 z" />
      </g>
      <path
         id="lpe_path-effect2272"
         style="font-weight:bold;font-size:52.9134px;line-height:1.25;font-family:'Lexend Deca';-inkscape-font-specification:'Lexend Deca Bold';letter-spacing:0px;word-spacing:0px"
         class="powerclip"
         d="M -4.9230753,-4.7055983 H 171.59984 V 76.653121 H -4.9230753 Z M 124.41083,50.689503 h 8.73068 V 38.307767 q 0,-1.322835 -0.0529,-2.381103 0,-1.111181 -0.0529,-2.222362 -0.0529,-1.111182 -0.21165,-2.48693 -0.10583,-1.375748 -0.31748,-3.121891 -0.15874,-1.799055 -0.42331,-4.338898 l -2.69858,-0.370394 20.26583,27.303314 h 8.14866 V 13.650124 h -8.73071 v 9.154018 q 0,2.169449 0,4.021418 0.0529,1.851969 0.10583,3.439371 0.10583,1.587402 0.21165,3.12189 0.15874,1.534489 0.31748,3.121891 0.15874,1.587402 0.42331,3.333544 l 1.74614,0.264567 -19.41921,-26.456699 h -8.04284 z m -41.431102,0 8.889451,3e-6 6.984569,-18.731343 q 0.423307,-1.322835 0.899527,-2.539844 0.476225,-1.269921 0.846615,-2.486929 0.42331,-1.269922 0.7937,-2.539843 0.42331,-1.269922 0.74079,-2.592757 l -1.5874,0.05291 q 0.26456,1.111182 0.63496,2.434017 0.4233,1.269921 0.84661,2.64567 0.42331,1.322835 0.84662,2.592756 0.4233,1.269922 0.84661,2.381103 l 6.98457,18.784257 h 9.1011 L 105.25627,13.650124 h -7.619531 z m 6.984569,-7.090396 h 22.594023 l -2.7515,-6.772915 H 92.768707 Z m -22.170625,7.61953 q 2.698583,0 5.344253,-0.634961 2.698584,-0.687874 4.868033,-1.851969 2.222363,-1.164095 3.545198,-2.64567 l -4.338899,-6.878742 q -1.005355,1.058268 -2.32819,1.904883 -1.269921,0.793701 -2.80441,1.269921 -1.534488,0.476221 -3.227717,0.476221 -2.48693,0 -4.550552,-0.740788 -2.01071,-0.740787 -3.439371,-2.169449 -1.428662,-1.428662 -2.222363,-3.386458 -0.793701,-2.010709 -0.793701,-4.444725 0,-2.48693 0.793701,-4.497639 0.793701,-2.010709 2.169449,-3.386458 1.428662,-1.428661 3.280631,-2.169449 1.904882,-0.793701 4.021418,-0.793701 1.693229,0 3.174804,0.476221 1.481575,0.47622 2.698584,1.375748 1.269921,0.846614 2.381103,2.010709 l 5.502993,-6.296694 q -1.587402,-1.851969 -3.809765,-3.174804 -2.169449,-1.375749 -4.709292,-2.063623 -2.539843,-0.687874 -5.185513,-0.687874 -4.233072,0 -7.831183,1.428662 -3.545198,1.428662 -6.190868,4.021418 -2.592757,2.539843 -4.074332,6.032128 -1.481575,3.492284 -1.481575,7.619529 0,4.233072 1.375749,7.77827 1.428661,3.492284 4.021418,6.08504 2.592756,2.539844 6.085041,3.968505 3.545197,1.375749 7.725356,1.375749 z m -38.097588,0 q 4.233072,0 7.46079,-1.375749 3.28063,-1.428661 5.132599,-4.074331 1.904883,-2.698584 1.904883,-6.561262 0,-2.48693 -0.952442,-4.338899 -0.899527,-1.904882 -2.645669,-3.28063 -1.693229,-1.375749 -4.074332,-2.32819 -2.32819,-0.952441 -5.238427,-1.534488 -1.269921,-0.211654 -2.434016,-0.529134 -1.164095,-0.370394 -2.063623,-0.846615 -0.899527,-0.529134 -1.428661,-1.164094 -0.529134,-0.634961 -0.529134,-1.534489 0,-1.005355 0.634961,-1.693229 0.63496,-0.740787 1.746142,-1.111181 1.164094,-0.423307 2.751496,-0.423307 1.534489,0 2.963151,0.47622 1.481575,0.476221 2.751496,1.375749 1.322835,0.899527 2.434017,2.275276 l 5.555907,-5.344254 q -1.322835,-2.010709 -3.227718,-3.43937 -1.851969,-1.428662 -4.497639,-2.16945 -2.592756,-0.793701 -6.243781,-0.793701 -2.751496,0 -5.291339,0.846615 -2.539844,0.793701 -4.497639,2.328189 -1.904883,1.481575 -3.068977,3.598111 -1.111182,2.063623 -1.111182,4.550553 0,2.328189 0.740788,4.233071 0.740787,1.851969 2.222362,3.333545 1.534489,1.428661 3.809765,2.434016 2.275276,1.005354 5.344253,1.693229 1.111182,0.211653 2.16945,0.529134 1.058268,0.264567 2.010709,0.687874 0.952441,0.370394 1.640315,0.846614 0.687874,0.476221 1.058268,1.111182 0.423307,0.63496 0.423307,1.428661 0,1.058268 -0.63496,1.799056 -0.634961,0.687874 -1.799056,1.058268 -1.164095,0.370394 -2.592756,0.370394 -2.857324,0 -5.555907,-1.217008 -2.64567,-1.217009 -5.29134,-4.762206 l -5.45008,6.190867 q 1.799055,2.275276 4.074331,3.968505 2.275277,1.640316 5.185514,2.539843 2.96315,0.846615 6.614174,0.846615 z" />
    </clipPath>
  </defs>
  <title
     id="title6">local</title>
  <path
     id="rect2186"
     style="fill:#ffffff;fill-rule:evenodd"
     d="M 0.07692468,0.29440165 H 166.59984 V 71.653121 H 0.07692468 Z"
     clip-path="url(#clipPath2266)"
     inkscape:path-effect="#path-effect2272"
     inkscape:original-d="M 0.07692468,0.29440165 H 166.59984 V 71.653121 H 0.07692468 Z" />
</svg>
